{
  "accessors": [
    {
      "bufferView": 2,
      "componentType": 5126,
      "count": 65532,
      "max": [
        0.3288673460483551,
        0.999847948551178,
        0.4648335874080658
      ],
      "min": [
        -0.32913243770599365,
        -0.9996122717857361,
        -0.4845632314682007
      ],
      "type": "VEC3"
    },
    {
      "bufferView": 2,
      "byteOffset": 786384,
      "componentType": 5126,
      "count": 65532,
      "max": [
        0.9999924898147583,
        0.9999745488166809,
        0.9999902248382568
      ],
      "min": [
        -0.9999998807907104,
        -0.9999998211860657,
        -0.9999998807907104
      ],
      "type": "VEC3"
    },
    {
      "bufferView": 3,
      "componentType": 5126,
      "count": 65532,
      "max": [
        1.0,
        0.9333333373069763,
        0.9725490212440491,
        1.0
      ],
      "min": [
        0.0,
        0.0,
        0.0,
        1.0
      ],
      "type": "VEC4"
    },
    {
      "bufferView": 1,
      "componentType": 5126,
      "count": 65532,
      "max": [
        0.9980469346046448,
        0.8955816030502319
      ],
      "min": [
        0.02086278423666954,
        0.013682303950190544
      ],
      "type": "VEC2"
    },
    {
      "bufferView": 0,
      "componentType": 5125,
      "count": 353604,
      "type": "SCALAR"
    },
    {
      "bufferView": 2,
      "byteOffset": 1572768,
      "componentType": 5126,
      "count": 41546,
      "max": [
        0.3215736150741577,
        0.9999629259109497,
        0.4844576418399811
      ],
      "min": [
        -0.326144814491272,
        -0.9985098242759705,
        -0.4845632314682007
      ],
      "type": "VEC3"
    },
    {
      "bufferView": 2,
      "byteOffset": 2071320,
      "componentType": 5126,
      "count": 41546,
      "max": [
        0.9999774098396301,
        0.9999745488166809,
        0.9999881386756897
      ],
      "min": [
        -0.9999831318855286,
        -0.9999955296516418,
        -0.999977707862854
      ],
      "type": "VEC3"
    },
    {
      "bufferView": 3,
      "byteOffset": 1048512,
      "componentType": 5126,
      "count": 41546,
      "max": [
        1.0,
        0.9960784316062927,
        0.9960784316062927,
        1.0
      ],
      "min": [
        0.0,
        0.0,
        0.0,
        1.0
      ],
      "type": "VEC4"
    },
    {
      "bufferView": 1,
      "byteOffset": 524256,
      "componentType": 5126,
      "count": 41546,
      "max": [
        0.9967262148857117,
        0.9960955381393433
      ],
      "min": [
        0.0019531227881088853,
        0.0019531226716935635
      ],
      "type": "VEC2"
    },
    {
      "bufferView": 0,
      "byteOffset": 1414416,
      "componentType": 5125,
      "count": 198948,
      "type": "SCALAR"
    }
  ],
  "asset": {
    "extras": {
      "author": "CzernO (https://sketchfab.com/czernobog)",
      "license": "CC-BY-4.0 (http://creativecommons.org/licenses/by/4.0/)",
      "source": "https://sketchfab.com/3d-models/deadpool-359b8b268695409089bade4232c738a0",
      "title": "Deadpool"
    },
    "generator": "Sketchfab-16.30.0",
    "version": "2.0"
  },
  "bufferViews": [
    {
      "buffer": 0,
      "byteLength": 2210208,
      "name": "floatBufferViews",
      "target": 34963
    },
    {
      "buffer": 0,
      "byteLength": 856624,
      "byteOffset": 2210208,
      "byteStride": 8,
      "name": "floatBufferViews",
      "target": 34962
    },
    {
      "buffer": 0,
      "byteLength": 2569872,
      "byteOffset": 3066832,
      "byteStride": 12,
      "name": "floatBufferViews",
      "target": 34962
    },
    {
      "buffer": 0,
      "byteLength": 1713248,
      "byteOffset": 5636704,
      "byteStride": 16,
      "name": "floatBufferViews",
      "target": 34962
    }
  ],
  "buffers": [
    {
      "byteLength": 7349952,
      "uri": "scene.bin"
    }
  ],
  "images": [
    {
      "uri": "textures/tripo_node_863c44bf-ed24-4783-8c0d-6e172674e32f1_17_emissive.png"
    }
  ],
  "materials": [
    {
      "doubleSided": true,
      "emissiveFactor": [
        1.0,
        1.0,
        1.0
      ],
      "emissiveTexture": {
        "index": 0
      },
      "name": "tripo_node_863c44bf-ed24-4783-8c0d-6e172674e32f1_17",
      "pbrMetallicRoughness": {
        "metallicFactor": 0.0
      }
    }
  ],
  "meshes": [
    {
      "name": "tripo_node_863c44bf-ed24-4783-8c0d-6e172674e32f1_17_tripo_node_863c44bf-ed24-4783-8c0d-6e172674e32f1_17_0",
      "primitives": [
        {
          "attributes": {
            "COLOR_0": 2,
            "NORMAL": 1,
            "POSITION": 0,
            "TEXCOORD_0": 3
          },
          "indices": 4,
          "material": 0,
          "mode": 4
        }
      ]
    },
    {
      "name": "tripo_node_863c44bf-ed24-4783-8c0d-6e172674e32f1_17_tripo_node_863c44bf-ed24-4783-8c0d-6e172674e32f1_17_0",
      "primitives": [
        {
          "attributes": {
            "COLOR_0": 7,
            "NORMAL": 6,
            "POSITION": 5,
            "TEXCOORD_0": 8
          },
          "indices": 9,
          "material": 0,
          "mode": 4
        }
      ]
    }
  ],
  "nodes": [
    {
      "children": [
        1
      ],
      "matrix": [
        1.0,
        0.0,
        0.0,
        0.0,
        0.0,
        2.220446049250313e-16,
        -1.0,
        0.0,
        0.0,
        1.0,
        2.220446049250313e-16,
        0.0,
        0.0,
        0.0,
        0.0,
        1.0
      ],
      "name": "Sketchfab_model"
    },
    {
      "children": [
        2
      ],
      "matrix": [
        0.009999999776482582,
        0.0,
        0.0,
        0.0,
        0.0,
        0.0,
        0.009999999776482582,
        0.0,
        0.0,
        -0.009999999776482582,
        0.0,
        0.0,
        0.0,
        0.0,
        0.0,
        1.0
      ],
      "name": "DEADPOOL.fbx"
    },
    {
      "children": [
        3,
        6
      ],
      "name": "RootNode"
    },
    {
      "children": [
        4,
        5
      ],
      "name": "tripo_node_863c44bf-ed24-4783-8c0d-6e172674e32f1_17"
    },
    {
      "mesh": 0,
      "name": "tripo_node_863c44bf-ed24-4783-8c0d-6e172674e32f1_17_tripo_node_863c44bf-ed24-4783-8c0d-6e172674e32f1_17_0"
    },
    {
      "mesh": 1,
      "name": "tripo_node_863c44bf-ed24-4783-8c0d-6e172674e32f1_17_tripo_node_863c44bf-ed24-4783-8c0d-6e172674e32f1_17_0"
    },
    {
      "children": [
        7
      ],
      "matrix": [
        -0.6859207071591005,
        -1.6574959296744574e-07,
        0.7276762903175642,
        0.0,
        -0.3240135424907181,
        0.8953956556469658,
        -0.3054207657169955,
        0.0,
        -0.6515581384442797,
        -0.4452714002139738,
        -0.6141704750136658,
        0.0,
        735.88916015625,
        495.8309326171875,
        692.5791015625,
        1.0
      ],
      "name": "Camera"
    },
    {
      "name": "Object_7"
    }
  ],
  "samplers": [
    {
      "magFilter": 9729,
      "minFilter": 9987,
      "wrapS": 10497,
      "wrapT": 10497
    }
  ],
  "scene": 0,
  "scenes": [
    {
      "name": "Sketchfab_Scene",
      "nodes": [
        0
      ]
    }
  ],
  "textures": [
    {
      "sampler": 0,
      "source": 0
    }
  ]
}
